<?xml version="1.0" encoding="UTF-8" standalone="no"?>
<svg
   xmlns:dc="http://purl.org/dc/elements/1.1/"
   xmlns:cc="http://creativecommons.org/ns#"
   xmlns:rdf="http://www.w3.org/1999/02/22-rdf-syntax-ns#"
   xmlns:svg="http://www.w3.org/2000/svg"
   xmlns="http://www.w3.org/2000/svg"
   xmlns:sodipodi="http://sodipodi.sourceforge.net/DTD/sodipodi-0.dtd"
   xmlns:inkscape="http://www.inkscape.org/namespaces/inkscape"
   data-v-5f19e91b=""
   width="77.655128"
   height="77.655128"
   viewBox="0 0 77.655128 77.655128"
   version="1.1"
   id="svg4532"
   sodipodi:docname="icon-left-font-monochrome-white-min.svg"
   inkscape:version="0.92.2 (5c3e80d, 2017-08-06)">
  <metadata
     id="metadata4538">
    <rdf:RDF>
      <cc:Work
         rdf:about="">
        <dc:format>image/svg+xml</dc:format>
        <dc:type
           rdf:resource="http://purl.org/dc/dcmitype/StillImage" />
        <dc:title></dc:title>
      </cc:Work>
    </rdf:RDF>
  </metadata>
  <defs
     id="defs4536" />
  <sodipodi:namedview
     pagecolor="#ffffff"
     bordercolor="#666666"
     borderopacity="1"
     objecttolerance="10"
     gridtolerance="10"
     guidetolerance="10"
     inkscape:pageopacity="0"
     inkscape:pageshadow="2"
     inkscape:window-width="1920"
     inkscape:window-height="1017"
     id="namedview4534"
     showgrid="false"
     inkscape:zoom="2.9195876"
     inkscape:cx="51.846792"
     inkscape:cy="52.728111"
     inkscape:window-x="1912"
     inkscape:window-y="68"
     inkscape:window-maximized="1"
     inkscape:current-layer="svg4532" />
  <!---->
  <!---->
  <!---->
  <g
     data-v-5f19e91b=""
     id="b84507ba-a37d-0d6c-3fcb-8fc531264173"
     transform="matrix(4.5696877,0,0,4.5696877,95.957489,-2.603484)"
     style="fill:#ffffff" />
  <!---->
  <g
     data-v-5f19e91b=""
     id="eb8ee116-946f-66a4-a2bb-64183428be89"
     transform="matrix(0.92888913,0,0,0.92888913,182.80538,-199.89694)"
     style="fill:#ffffff;stroke:none">
    <switch
       id="switch4529">
      <g
         id="g4527">
        <path
           d="m -155,298.8 c 11.2,0 21.7,-4.3 29.6,-12.2 7.9,-7.9 12.2,-18.4 12.2,-29.6 0,-11.2 -4.3,-21.7 -12.2,-29.6 -7.9,-7.9 -18.4,-12.2 -29.6,-12.2 -11.2,0 -21.7,4.3 -29.6,12.2 -7.9,7.9 -12.2,18.4 -12.2,29.6 0,11.2 4.3,21.7 12.2,29.6 7.9,7.9 18.4,12.2 29.6,12.2 z m 2.4,-7.1 c -0.8,0.1 -1.6,0.1 -2.4,0.1 -1.1,0 -2.2,-0.1 -3.3,-0.2 -3.6,-5.6 -6.3,-11.6 -7.9,-17.9 h 17.7 c 0.6,1.5 1.7,2.9 3,3.8 -1.7,5 -4.1,9.7 -7.1,14.2 z m 9.5,-2 c 1.9,-3.5 3.4,-7 4.6,-10.7 2.9,-0.6 5.2,-2.6 6.3,-5.3 h 7.7 c -4,7.3 -10.7,13 -18.6,16 z m 22.8,-32.7 c 0,3.3 -0.5,6.5 -1.3,9.6 h -10.8 c -0.6,-1.3 -1.6,-2.5 -2.8,-3.4 0.2,-2.2 0.3,-4.4 0.3,-6.6 0,-3.1 -0.2,-6.2 -0.6,-9.2 h 13.8 c 1,3 1.4,6.3 1.4,9.6 z m -4.2,-16.7 h -12.2 c -1.3,-5.5 -3.2,-10.7 -5.8,-15.7 7.6,2.9 14,8.6 18,15.7 z m -17.4,16.3 c 0,1.7 -0.1,3.4 -0.2,5.1 -2.8,0.6 -5.1,2.4 -6.2,4.9 h -19.3 c -0.4,-3 -0.7,-6.1 -0.7,-9.1 0,-1.9 0.1,-3.8 0.3,-5.7 2.6,-0.5 4.7,-2.2 6,-4.4 h 19.5 c 0.4,3 0.6,6.1 0.6,9.2 z m -15.7,-34.2 c 0.9,-0.1 1.8,-0.1 2.6,-0.1 1,0 2,0 3,0.1 3.6,5.6 6.3,11.6 7.9,17.9 h -17.4 c -0.6,-1.7 -1.7,-3.2 -3.1,-4.3 1.8,-4.8 4.1,-9.3 7,-13.6 z m -9.5,2 c -1.7,3.2 -3.2,6.6 -4.4,10 -3.1,0.6 -5.6,2.9 -6.6,5.8 h -7.3 c 3.9,-7.1 10.4,-12.8 18.3,-15.8 z m -22.6,32.6 c 0,-3.3 0.5,-6.6 1.4,-9.6 h 10.9 c 0.6,1.1 1.5,2.1 2.5,2.9 -0.2,2.4 -0.4,4.8 -0.4,7.2 0,3.1 0.2,6.1 0.6,9.1 h -13.6 c -1,-3.1 -1.4,-6.3 -1.4,-9.6 z m 16.2,16.6 c 1.3,5.4 3.2,10.7 5.8,15.7 -7.6,-3 -13.9,-8.6 -17.8,-15.7 z"
           id="path4525"
           inkscape:connector-curvature="0" />
      </g>
    </switch>
  </g>
</svg>
